HIERARCHY
ROOT Hips
{
	OFFSET 0.000000 0.000000 0.000000 
	CHANNELS 6 Xposition Yposition Zposition Zrotation Yrotation Xrotation
	JOINT LeftUpLeg
	{
		OFFSET 1.363060 -1.794630 0.839290 
		CHANNELS 3 Zrotation Yrotation Xrotation
		JOINT LeftLeg
		{
			OFFSET 2.448110 -6.726130 0.000000 
			CHANNELS 3 Zrotation Yrotation Xrotation
			JOINT LeftFoot
			{
				OFFSET 2.562200 -7.039590 0.000000 
				CHANNELS 3 Zrotation Yrotation Xrotation
				JOINT LeftToeBase
				{
					OFFSET 0.157640 -0.433110 2.322550 
					CHANNELS 3 Zrotation Yrotation Xrotation
					End Site
					{
						OFFSET 0.000000 0.000000 0.000000 
					}
				}
			}
		}
	}
	JOINT RightUpLeg
	{
		OFFSET -1.305520 -1.794630 0.839290 
		CHANNELS 3 Zrotation Yrotation Xrotation
		JOINT RightLeg
		{
			OFFSET -2.542530 -6.985550 0.000000 
			CHANNELS 3 Zrotation Yrotation Xrotation
			JOINT RightFoot
			{
				OFFSET -2.568260 -7.056230 0.000000 
				CHANNELS 3 Zrotation Yrotation Xrotation
				JOINT RightToeBase
				{
					OFFSET -0.164730 -0.452590 2.363150 
					CHANNELS 3 Zrotation Yrotation Xrotation
					End Site
					{
						OFFSET 0.000000 0.000000 0.000000 
					}
				}
			}
		}
	}
	JOINT Spine
	{
		OFFSET 0.028270 2.035590 -0.193380 
		CHANNELS 3 Zrotation Yrotation Xrotation
		JOINT Spine1
		{
			OFFSET 0.056720 2.048850 -0.042750 
			CHANNELS 3 Zrotation Yrotation Xrotation
			JOINT Neck1
			{
				OFFSET -0.054170 1.746240 0.172020 
				CHANNELS 3 Zrotation Yrotation Xrotation
				JOINT Head
				{
					OFFSET 0.104070 1.761360 -0.123970 
					CHANNELS 3 Zrotation Yrotation Xrotation
					End Site
					{
						OFFSET 0.000000 0.000000 0.000000 
					}
				}
			}
			JOINT LeftArm
			{
				OFFSET 3.362410 1.200890 -0.311210 
				CHANNELS 3 Zrotation Yrotation Xrotation
				JOINT LeftForeArm
				{
					OFFSET 4.983000 -0.000000 -0.000000 
					CHANNELS 3 Zrotation Yrotation Xrotation
					JOINT LeftHand
					{
						OFFSET 3.483560 -0.000000 -0.000000 
						CHANNELS 3 Zrotation Yrotation Xrotation
						JOINT LeftHandIndex1
						{
							OFFSET 0.715260 -0.000000 -0.000000 
							CHANNELS 3 Zrotation Yrotation Xrotation
							End Site
							{
								OFFSET 0.000000 0.000000 0.000000 
							}
						}
					}
				}
			}
			JOINT RightArm
			{
				OFFSET -3.136600 1.374050 -0.404650 
				CHANNELS 3 Zrotation Yrotation Xrotation
				JOINT RightForeArm
				{
					OFFSET -5.241900 -0.000000 -0.000000 
					CHANNELS 3 Zrotation Yrotation Xrotation
					JOINT RightHand
					{
						OFFSET -3.444170 -0.000000 -0.000000 
						CHANNELS 3 Zrotation Yrotation Xrotation
						JOINT RightHandIndex1
						{
							OFFSET -0.622530 -0.000000 -0.000000 
							CHANNELS 3 Zrotation Yrotation Xrotation
							End Site
							{
								OFFSET 0.000000 0.000000 0.000000 
							}
						}
					}
				}
			}
		}
	}
}
MOTION
Frames: 18
Frame Time: 0.041667
-0.748149 17.847062 7.029547 -5.422032 0.223582 -6.725246 -6.545469 9.764709 27.936776 0.222317 -10.951420 -26.067075 -2.612434 17.949097 16.071428 0.995100 -6.348600 -17.799400 17.837279 -6.739719 28.495375 0.490394 8.379851 -18.740522 4.122536 -19.894929 -0.375457 -0.070500 1.713400 -4.714300 -4.748783 1.999349 9.569199 -1.623287 1.504724 -15.087949 2.553742 -5.007909 11.997996 0.019600 -2.090000 8.634700 -46.779577 5.800863 -15.708702 145.453440 -41.490929 -105.853189 -1.536592 2.363197 11.515886 -7.125000 0.000000 0.000000 60.217538 -19.856846 -19.067003 -150.908264 32.671420 -109.885234 6.012788 2.059128 14.517356 7.125000 0.000000 0.000000 
-0.757933 17.790556 7.023657 -5.363110 0.214241 -8.089684 -6.212917 9.932920 29.643646 0.328739 -11.217306 -26.755803 -2.628649 18.116894 16.083113 1.030600 -6.457400 -18.117500 17.595620 -6.977238 29.995617 0.458496 8.498348 -18.985592 4.066753 -19.643655 -0.531590 -0.086700 1.899500 -5.228000 -5.364457 2.045700 11.507659 -1.201233 1.517701 -15.277398 2.633025 -4.993298 12.492517 0.089300 -2.085500 8.593300 -41.987510 1.785913 -16.476962 141.396723 -44.371184 -102.938219 -1.504269 2.269156 10.660862 -7.125000 0.000000 0.000000 54.579300 -16.500635 -19.283680 -148.726381 35.068320 -108.304683 5.817885 1.852270 14.946828 7.125000 0.000000 0.000000 
-0.767916 17.710291 7.020662 -5.214255 0.230311 -9.288941 -5.874330 10.482900 31.382036 0.483370 -11.559196 -27.672210 -2.652618 18.321487 16.013657 1.183600 -6.904500 -19.432800 17.356768 -7.338475 31.589713 0.407305 8.663865 -19.358798 3.987598 -19.288482 -0.942928 -0.110200 2.140400 -5.893900 -6.848071 2.191103 11.707800 -0.823636 1.540471 -15.638551 3.186500 -5.232236 13.998954 0.260600 -2.145600 8.834300 -36.778997 -2.642521 -17.250690 136.252468 -47.467581 -99.014333 -1.464641 2.149934 9.325554 -7.125000 0.000000 0.000000 48.549581 -12.692859 -19.949793 -145.473384 38.117747 -105.839363 5.448936 1.716964 14.717040 7.125000 0.000000 0.000000 
-0.797666 17.617646 7.040629 -5.479484 0.933588 -10.263454 -5.175298 10.980147 32.709333 0.675518 -11.952767 -28.697487 -2.577435 18.084292 16.056902 1.230600 -7.035300 -19.820100 17.482452 -8.053923 32.944365 0.344725 8.878236 -19.827086 3.923916 -18.960976 -1.803518 -0.163200 2.602700 -7.174500 -6.273654 1.911689 13.218828 -0.322069 1.437040 -15.581305 3.670110 -5.384862 15.603799 0.466800 -2.169400 9.242400 -31.994659 -7.921451 -18.928798 129.635980 -50.532572 -93.723969 -1.422407 1.999841 7.885960 -7.125000 0.000000 0.000000 42.245688 -7.538991 -21.282634 -141.071944 41.510445 -102.249850 5.027468 1.658389 14.330338 7.125000 0.000000 0.000000 
-0.812142 17.525000 7.060496 -5.626169 1.500190 -10.512783 -4.799796 11.645471 33.565270 0.888395 -12.351891 -29.771996 -2.529402 17.845139 15.843558 0.730300 -5.460200 -15.225800 17.422525 -8.957487 33.712808 0.256054 9.124850 -20.442336 3.809861 -18.500352 -2.205293 -0.242700 3.170100 -8.752700 -5.902690 1.250534 11.765588 0.528309 1.217642 -15.265429 3.452350 -5.127822 16.804498 0.464700 -2.052200 9.210400 -27.478477 -12.344567 -20.486179 121.559153 -53.352490 -86.844802 -1.338513 1.843308 6.680056 -7.125000 0.000000 0.000000 36.595883 -1.983284 -21.905453 -135.534471 44.969001 -97.452362 4.618889 1.442177 14.469836 7.125000 0.000000 0.000000 
-0.813839 17.439044 7.081660 -5.667100 1.885775 -10.229564 -4.800552 12.212181 33.940235 1.105149 -12.744174 -30.849999 -2.491265 17.609967 15.539952 0.653400 -5.170300 -14.395000 17.199433 -9.790722 33.887116 0.151396 9.396165 -21.151786 3.678541 -17.980923 -2.403284 -0.304000 3.545200 -9.800400 -4.987685 0.730192 10.123695 1.175585 1.057693 -14.473753 2.992493 -4.837555 17.968649 0.432400 -1.964100 9.215700 -23.899107 -17.312587 -22.558825 112.547363 -55.500161 -78.867519 -1.177276 1.703243 6.519156 -7.125000 0.000000 0.000000 31.857368 3.713940 -23.215633 -129.351311 47.930567 -91.828278 4.240417 1.180749 14.702699 7.125000 0.000000 0.000000 
-0.801560 17.359178 7.099331 -5.304269 2.026630 -9.032478 -5.214585 12.651435 33.830410 1.347634 -13.099734 -31.961319 -2.452568 17.457500 15.227949 0.795200 -5.691900 -15.893000 16.991013 -10.428128 33.613088 0.022994 9.710223 -22.039499 3.561341 -17.560711 -2.597954 -0.319600 3.633900 -10.048900 -7.222669 0.465907 4.216606 1.591209 0.966278 -13.259585 3.542757 -4.918869 19.458187 0.611600 -1.958300 9.292300 -21.777412 -21.600622 -23.930866 104.106481 -57.023320 -71.221904 -0.987841 1.564940 7.108645 -7.125000 0.000000 0.000000 29.276687 7.151493 -24.122613 -124.221518 49.996493 -86.876143 3.946563 1.004596 15.278081 7.125000 0.000000 0.000000 
-0.809147 17.273721 7.128981 -5.365520 2.576605 -7.815424 -5.311100 12.649298 33.771027 1.623977 -13.456786 -33.147062 -2.317713 17.065264 15.247793 0.965600 -6.256300 -17.530000 17.189054 -11.060895 33.546465 -0.133164 10.097468 -23.125336 3.521281 -17.467193 -3.319775 -0.306100 3.557300 -9.834400 -6.971204 -0.262397 -1.599405 1.945130 0.698685 -11.851860 2.932849 -4.533521 20.802614 0.526300 -1.832800 9.453400 -21.491311 -22.705061 -24.398862 99.478994 -57.724246 -66.950414 -0.916515 1.477462 6.778946 -7.125000 0.000000 0.000000 27.321186 8.765946 -24.858390 -121.759608 50.966173 -84.362339 3.793893 0.895161 14.655386 7.125000 0.000000 0.000000 
-0.813041 17.194653 7.152941 -5.578267 2.984780 -7.083187 -5.294938 12.613343 33.980242 1.913924 -13.852285 -34.439650 -2.172143 16.855532 15.658353 1.073400 -6.585900 -18.494200 17.318764 -11.443758 33.806484 -0.322460 10.560006 -24.439935 3.550050 -17.690397 -3.656949 -0.330300 3.693900 -10.216900 -5.120387 -0.552054 -4.124044 1.948354 0.530303 -11.146294 2.170389 -4.176115 21.883449 0.432400 -1.752900 9.882700 -21.675938 -23.544192 -25.275276 97.274692 -58.005239 -64.882220 -0.878970 1.455166 6.804550 -7.125000 0.000000 0.000000 25.214479 8.702322 -26.358709 -121.543291 51.109268 -83.932979 3.765531 0.887409 13.996387 7.125000 0.000000 0.000000 
-0.813939 17.124470 7.164122 -5.600097 3.269516 -6.321760 -5.353323 12.767924 34.278560 2.214259 -14.238867 -35.775459 -2.031884 16.933421 16.397390 1.061100 -6.549400 -18.387000 17.354098 -11.699563 34.317544 -0.539821 11.054187 -25.908580 3.652614 -18.276189 -3.545582 -0.380200 3.960200 -10.964700 -4.518527 -0.922537 -8.469257 2.024994 0.338893 -10.603924 1.789667 -3.849581 22.772751 0.397600 -1.640200 10.251900 -22.280633 -23.140640 -25.102938 96.867401 -58.164233 -64.507086 -0.862986 1.470073 7.390583 -7.125000 0.000000 0.000000 23.853613 8.453244 -26.820941 -121.493893 51.280053 -83.749569 3.807773 0.835477 14.498776 7.125000 0.000000 0.000000 
-0.812941 17.062673 7.166419 -5.500004 3.424518 -6.140678 -5.273782 13.123571 34.832979 2.481858 -14.601302 -36.971019 -1.922689 17.114081 17.133049 1.001100 -6.367200 -17.853500 17.203644 -12.024907 35.174711 -0.772491 11.566948 -27.442884 3.800502 -19.085767 -2.936942 -0.460000 4.350600 -12.065100 -5.075191 -1.254326 -10.261416 2.154872 0.214542 -10.386591 2.042099 -3.709417 23.004111 0.491700 -1.539500 10.479400 -22.469991 -22.578237 -24.887862 96.836907 -58.199158 -64.488902 -0.852114 1.489860 8.228030 -7.125000 0.000000 0.000000 22.828401 8.126327 -27.316718 -121.277534 51.394009 -83.448527 3.828828 0.814557 14.840561 7.125000 0.000000 0.000000 
-0.810645 17.013356 7.168914 -5.389210 3.357495 -6.515693 -5.045467 13.589617 35.696982 2.686323 -14.893574 -37.869661 -1.850562 17.203389 17.595067 0.997600 -6.356400 -17.822000 16.870867 -12.500949 36.315031 -1.001937 12.049972 -28.892682 3.932662 -19.867381 -1.984567 -0.566300 4.819900 -13.395600 -5.889634 -1.417533 -10.143272 2.266103 0.183361 -10.471873 2.025088 -3.667564 23.143395 0.459300 -1.502400 10.690200 -21.910124 -22.126380 -24.738121 95.960420 -58.267415 -63.681772 -0.839364 1.481503 8.487947 -7.125000 0.000000 0.000000 21.829430 7.887555 -27.884470 -120.493969 51.598971 -82.596799 3.770887 0.820965 14.321733 7.125000 0.000000 0.000000 
-0.806452 16.977316 7.172708 -5.175986 3.092056 -7.078808 -4.941135 14.040396 36.623835 2.808779 -15.085955 -38.414038 -1.829651 17.246787 17.729817 1.023500 -6.435800 -18.054400 16.337541 -12.892416 37.466976 -1.198203 12.433757 -30.059136 4.013814 -20.426716 -1.145002 -0.623000 5.051000 -14.054200 -6.476689 -1.434947 -9.608296 2.417922 0.215244 -10.646537 1.977245 -3.624391 22.972614 0.426800 -1.473300 10.756500 -20.782846 -21.712206 -24.570245 94.197421 -58.400718 -62.058453 -0.831986 1.445367 7.891809 -7.125000 0.000000 0.000000 20.765801 7.949587 -28.451025 -119.130408 51.956931 -81.180620 3.665095 0.817041 13.514862 7.125000 0.000000 0.000000 
-0.802958 16.950760 7.176302 -4.877331 2.700392 -7.581122 -4.991350 14.480319 37.393257 2.863755 -15.196424 -38.682566 -1.851425 17.307525 17.651188 1.014200 -6.407300 -17.970800 15.764255 -13.037007 38.419676 -1.348122 12.703061 -30.898603 4.054037 -20.767073 -0.575870 -0.635300 5.099500 -14.192600 -6.796395 -1.346991 -9.202620 2.602256 0.292928 -10.765781 1.950507 -3.618160 22.844569 0.412300 -1.467000 10.807800 -19.726334 -21.531006 -24.458978 92.455385 -58.524932 -60.463301 -0.825662 1.413296 7.179620 -7.125000 0.000000 0.000000 19.884660 8.264036 -29.075538 -117.674520 52.346343 -79.686434 3.574431 0.793454 13.117945 7.125000 0.000000 0.000000 
-0.822525 16.925103 7.188182 -4.807668 2.796356 -8.136168 -4.772823 14.562720 38.073825 2.896601 -15.244892 -38.799121 -1.821071 17.149009 17.662843 1.018500 -6.420500 -18.009400 15.552338 -13.294042 39.358038 -1.446224 12.887123 -31.433661 4.097980 -21.003220 -0.578307 -0.644400 5.135300 -14.294900 -6.475338 -1.394631 -8.540223 2.902430 0.287914 -10.824735 1.872735 -3.655234 22.909604 0.391300 -1.487700 10.920200 -19.143034 -21.720559 -24.512996 91.286068 -58.594626 -59.369790 -0.814814 1.403122 6.937517 -7.125000 0.000000 0.000000 19.299059 8.609543 -29.745046 -116.572847 52.629847 -78.573003 3.511163 0.761635 12.876209 7.125000 0.000000 0.000000 
-0.817733 16.908431 7.184888 -4.684989 2.607481 -8.330120 -4.804295 14.743788 38.418827 2.910264 -15.276047 -38.869754 -1.830078 17.168015 17.624729 1.045700 -6.503200 -18.251700 15.349985 -13.253776 39.780359 -1.505454 12.980774 -31.735332 4.093435 -21.036937 -0.456231 -0.649600 5.155800 -14.353500 -6.583695 -1.349318 -8.852977 2.968948 0.326617 -10.804663 1.817772 -3.700570 22.985634 0.360900 -1.510000 11.015900 -18.917342 -22.095191 -24.652708 90.444880 -58.652195 -58.630019 -0.802815 1.396259 6.999502 -7.125000 0.000000 0.000000 19.041437 8.810079 -30.322882 -115.931079 52.805839 -77.919794 3.465809 0.742907 12.544657 7.125000 0.000000 0.000000 
-0.786785 16.902441 7.169913 -4.520357 2.041691 -8.203169 -5.069363 15.129506 38.471583 2.910830 -15.304851 -38.918928 -1.884565 17.340764 17.473584 1.067200 -6.567400 -18.439800 15.135157 -12.896036 39.749814 -1.538405 13.008697 -31.882640 4.061479 -20.969219 -0.210889 -0.623000 5.051200 -14.054600 -7.004613 -1.144923 -10.037025 2.749230 0.432721 -10.722680 1.905041 -3.760614 23.082243 0.369700 -1.528800 11.100600 -18.775628 -22.567411 -24.787214 89.569235 -58.718590 -57.913519 -0.792770 1.383773 7.083137 -7.125000 0.000000 0.000000 18.891630 8.856622 -30.732500 -115.557729 52.927864 -77.514815 3.427897 0.742562 12.234884 7.125000 0.000000 0.000000 
-0.777600 16.897050 7.168016 -4.617240 1.923374 -8.216078 -5.012319 15.252710 38.562271 2.915070 -15.310419 -38.915010 -1.879213 17.221929 17.368569 1.098000 -6.658400 -18.707200 15.214262 -12.768825 39.866159 -1.546591 13.015870 -31.913050 4.066310 -20.969269 -0.384847 -0.579800 4.875900 -13.555000 -6.600906 -1.046514 -10.644675 2.650248 0.454340 -10.595354 1.862328 -3.750797 23.185426 0.375000 -1.535200 11.177500 -18.612122 -23.074969 -24.943305 88.682930 -58.775346 -57.140859 -0.786308 1.371537 7.040617 -7.125000 0.000000 0.000000 18.463230 8.880573 -31.036855 -115.090456 53.068947 -77.001821 3.393793 0.730563 11.988311 7.125000 0.000000 0.000000 
